{
  "accessors": [
    {
      "bufferView": 2,
      "componentType": 5126,
      "count": 9164,
      "max": [
        3.729443073272705,
        -3.530466079711914,
        3.3523221015930176
      ],
      "min": [
        -2.9760780334472656,
        -39.591896057128906,
        -4.541919231414795
      ],
      "type": "VEC3"
    },
    {
      "bufferView": 2,
      "byteOffset": 109968,
      "componentType": 5126,
      "count": 9164,
      "max": [
        0.9808239936828613,
        1.0,
        0.9885799288749695
      ],
      "min": [
        -0.9572357535362244,
        -0.9991533756256104,
        -0.8613758683204651
      ],
      "type": "VEC3"
    },
    {
      "bufferView": 1,
      "componentType": 5126,
      "count": 9164,
      "max": [
        0.03125,
        1.0
      ],
      "min": [
        0.0,
        0.945635974407196
      ],
      "type": "VEC2"
    },
    {
      "bufferView": 0,
      "componentType": 5125,
      "count": 53583,
      "type": "SCALAR"
    },
    {
      "bufferView": 2,
      "byteOffset": 219936,
      "componentType": 5126,
      "count": 65532,
      "max": [
        6.434169769287109,
        -6.390270233154297,
        4.5703959465026855
      ],
      "min": [
        -6.725924015045166,
        -39.130489349365234,
        -4.717648029327393
      ],
      "type": "VEC3"
    },
    {
      "bufferView": 2,
      "byteOffset": 1006320,
      "componentType": 5126,
      "count": 65532,
      "max": [
        0.999974250793457,
        0.9421465396881104,
        0.9999786019325256
      ],
      "min": [
        -0.9999897480010986,
        -0.9997974634170532,
        -0.9999853372573853
      ],
      "type": "VEC3"
    },
    {
      "bufferView": 1,
      "byteOffset": 73312,
      "componentType": 5126,
      "count": 65532,
      "max": [
        0.9604359865188599,
        0.9980379939079285
      ],
      "min": [
        0.002070999937132001,
        0.5404229760169983
      ],
      "type": "VEC2"
    },
    {
      "bufferView": 0,
      "byteOffset": 214332,
      "componentType": 5125,
      "count": 380199,
      "type": "SCALAR"
    },
    {
      "bufferView": 2,
      "byteOffset": 1792704,
      "componentType": 5126,
      "count": 40542,
      "max": [
        6.432570934295654,
        -3.536536931991577,
        4.597798824310303
      ],
      "min": [
        -6.621841907501221,
        -38.597137451171875,
        -5.644657135009766
      ],
      "type": "VEC3"
    },
    {
      "bufferView": 2,
      "byteOffset": 2279208,
      "componentType": 5126,
      "count": 40542,
      "max": [
        0.9999924898147583,
        0.9999992251396179,
        0.9999729990959167
      ],
      "min": [
        -0.9999988675117493,
        -0.9999971389770508,
        -0.999986469745636
      ],
      "type": "VEC3"
    },
    {
      "bufferView": 1,
      "byteOffset": 597568,
      "componentType": 5126,
      "count": 40542,
      "max": [
        0.9917259812355042,
        0.9980149865150452
      ],
      "min": [
        0.0020639998838305473,
        0.21893300116062164
      ],
      "type": "VEC2"
    },
    {
      "bufferView": 0,
      "byteOffset": 1735128,
      "componentType": 5125,
      "count": 226920,
      "type": "SCALAR"
    }
  ],
  "asset": {
    "extras": {
      "author": "John Fino (tauricity) (https://sketchfab.com/tauricity)",
      "license": "CC-BY-4.0 (http://creativecommons.org/licenses/by/4.0/)",
      "source": "https://sketchfab.com/3d-models/terracotta-warrior-4-high-resolution-fcb52d9626534453bdb4342632742f17",
      "title": "Terracotta Warrior 4 - High Resolution"
    },
    "generator": "Sketchfab-12.66.0",
    "version": "2.0"
  },
  "bufferViews": [
    {
      "buffer": 0,
      "byteLength": 2642808,
      "name": "floatBufferViews",
      "target": 34963
    },
    {
      "buffer": 0,
      "byteLength": 921904,
      "byteOffset": 2642808,
      "byteStride": 8,
      "name": "floatBufferViews",
      "target": 34962
    },
    {
      "buffer": 0,
      "byteLength": 2765712,
      "byteOffset": 3564712,
      "byteStride": 12,
      "name": "floatBufferViews",
      "target": 34962
    }
  ],
  "buffers": [
    {
      "byteLength": 6330424,
      "uri": "scene.bin"
    }
  ],
  "extensionsUsed": [
    "KHR_materials_unlit"
  ],
  "images": [
    {
      "uri": "textures/Material_0_baseColor.jpeg"
    },
    {
      "uri": "textures/Material_1_baseColor.jpeg"
    }
  ],
  "materials": [
    {
      "doubleSided": true,
      "extensions": {
        "KHR_materials_unlit": {}
      },
      "name": "Material_0",
      "pbrMetallicRoughness": {
        "baseColorTexture": {
          "index": 0
        },
        "metallicFactor": 0.0
      }
    },
    {
      "doubleSided": true,
      "extensions": {
        "KHR_materials_unlit": {}
      },
      "name": "Material_1",
      "pbrMetallicRoughness": {
        "baseColorTexture": {
          "index": 1
        },
        "metallicFactor": 0.0
      }
    }
  ],
  "meshes": [
    {
      "name": "Object_0",
      "primitives": [
        {
          "attributes": {
            "NORMAL": 1,
            "POSITION": 0,
            "TEXCOORD_0": 2
          },
          "indices": 3,
          "material": 0,
          "mode": 4
        }
      ]
    },
    {
      "name": "Object_1",
      "primitives": [
        {
          "attributes": {
            "NORMAL": 5,
            "POSITION": 4,
            "TEXCOORD_0": 6
          },
          "indices": 7,
          "material": 1,
          "mode": 4
        }
      ]
    },
    {
      "name": "Object_2",
      "primitives": [
        {
          "attributes": {
            "NORMAL": 9,
            "POSITION": 8,
            "TEXCOORD_0": 10
          },
          "indices": 11,
          "material": 1,
          "mode": 4
        }
      ]
    }
  ],
  "nodes": [
    {
      "children": [
        1
      ],
      "matrix": [
        1.0,
        0.0,
        0.0,
        0.0,
        0.0,
        -1.0,
        -3.834759027214593e-17,
        0.0,
        0.0,
        3.834759027214593e-17,
        -1.0,
        0.0,
        0.0,
        0.0,
        0.0,
        1.0
      ],
      "name": "Sketchfab_model"
    },
    {
      "children": [
        2,
        3,
        4
      ],
      "name": "Terracotta_warrior_4_hq-best-exported.obj.cleaner"
    },
    {
      "mesh": 0,
      "name": "Object_2"
    },
    {
      "mesh": 1,
      "name": "Object_3"
    },
    {
      "mesh": 2,
      "name": "Object_4"
    }
  ],
  "samplers": [
    {
      "magFilter": 9729,
      "minFilter": 9987,
      "wrapS": 10497,
      "wrapT": 10497
    }
  ],
  "scene": 0,
  "scenes": [
    {
      "name": "Sketchfab_Scene",
      "nodes": [
        0
      ]
    }
  ],
  "textures": [
    {
      "sampler": 0,
      "source": 0
    },
    {
      "sampler": 0,
      "source": 1
    }
  ]
}
